<svg width="150" height="150" viewBox="0 0 150 150" fill="none" xmlns="http://www.w3.org/2000/svg">
<path fill-rule="evenodd" clip-rule="evenodd" d="M108.953 116.843H121.169V128.974H108.953V116.843ZM76.831 116.843H105.103V128.974H76.831V116.843ZM44.9343 116.843H73.2066V128.974H44.9343V116.843ZM28.8685 116.843H41.0845V128.974H28.8685V116.843ZM60.7653 101.121H89.2723V113.253H60.7653V101.121ZM28.8685 101.121H57.1408V113.253H28.8685V101.121ZM108.944 85.3999H121.16V97.5314H108.944V85.3999ZM76.8216 85.3999H105.094V97.5314H76.8216V85.3999ZM44.9249 85.3999H73.1972V97.5314H44.9249V85.3999ZM28.8592 85.3999H41.0751V97.5314H28.8592V85.3999ZM92.8779 69.6785H121.15V81.8099H92.8779V69.6785ZM60.7559 69.6785H88.5775C89.0939 69.6785 89.2535 69.837 89.2535 70.3499V81.8099H60.7465V69.6785H60.7559ZM28.8592 69.6785H57.1315V81.8099H28.8592V69.6785ZM108.934 53.957H121.15V66.0885H108.934V53.957ZM76.8122 53.957H105.085V66.0885H76.8122V53.957ZM28.8592 53.957H41.0751V66.0885H28.8592V53.957ZM25.0094 52.3811V130.56C25.0094 131.483 25.77 132.583 26.5962 132.583H123.188C124.352 132.583 125 131.651 125 130.56V111.463C125 108.395 121.15 108.395 121.15 111.463V113.262H92.8779V101.131H121.15V102.93C121.15 106.129 125 106.129 125 102.93V52.3811C125 51.458 124.239 50.3577 123.413 50.3577H75C73.9014 50.3577 73.1878 51.0663 73.1878 52.1573V66.0885H44.9155V52.838C44.9155 51.4393 44.2676 50.367 42.8779 50.367H26.5869C25.7606 50.367 25 51.458 25 52.3905L25.0094 52.3811Z" fill="white"/>
<path fill-rule="evenodd" clip-rule="evenodd" d="M49.4597 22.4953C50.3047 22.5606 50.4831 22.7471 51.0935 23.1201L55.7226 25.7124C56.793 26.2905 57.7226 26.9153 58.7367 27.4374C62.3141 29.2744 67.4315 32.5194 70.8775 34.2538C71.7977 34.72 73.3 35.7551 74.1169 35.9789C74.0324 37.0232 72.0043 40.2589 71.3564 41.3313C70.3141 43.0563 69.3939 44.7814 68.455 46.5438C67.7038 46.3666 67.5066 46.1894 66.9151 45.8258L43.7977 32.8364C43.9855 32.0252 47.3282 26.3651 48.023 25.1249C48.4268 24.3976 49.2531 23.2227 49.4503 22.5047L49.4597 22.4953ZM39.2812 33.5078C39.2812 34.9532 40.7085 35.3914 42.3705 36.2773L55.4972 43.6811C56.2202 44.0821 56.7179 44.3991 57.3751 44.7348C69.8728 51.1409 68.6146 53.4068 71.9855 47.784C73.1592 45.8258 78.6428 36.4078 78.6428 35.522C78.6428 33.9461 77.2343 33.5917 75.4878 32.594C74.9057 32.2583 74.2578 31.904 73.6193 31.5217C72.9338 31.1114 72.4268 30.9062 71.7226 30.4866L60.4644 24.1458C59.1122 23.4092 58.0136 22.7191 56.6991 22.0478C56.0418 21.7121 55.5442 21.395 54.8212 20.9941L51.0559 18.896C47.4972 16.8352 47.8728 18.0568 43.5911 25.4326C42.8493 26.7194 42.0888 27.9503 41.3939 29.3117C40.9151 30.2535 39.2812 32.594 39.2812 33.5078Z" fill="white"/>
</svg>
