<svg width="150" height="150" viewBox="0 0 150 150" fill="none" xmlns="http://www.w3.org/2000/svg">
<path fill-rule="evenodd" clip-rule="evenodd" d="M21.4279 128.942C21.4279 126.327 21.0615 125.038 22.1059 125.038H128.565C129.628 125.038 129.243 126.327 129.243 128.942C129.243 129.568 129.133 129.568 129.023 130.084H21.6478C21.5195 129.568 21.4279 129.55 21.4279 128.942ZM92.248 40.3091L115.317 29.5178V116.309C115.317 123.638 116.948 122.717 103.132 117.764C101.245 117.082 99.7056 116.438 97.8183 115.757C96.8472 115.407 96.1143 115.149 95.1614 114.762C94.4102 114.467 92.9993 113.841 92.2663 113.768V40.2907L92.248 40.3091ZM36.728 121.594C34.8224 121.594 35.3537 121.428 35.3537 116.548V29.5362L58.4229 40.3275V113.804C57.5984 113.878 47.0624 117.948 45.0468 118.721C43.4893 119.329 37.6625 121.613 36.728 121.613V121.594ZM41.5287 28.376H109.142C108.849 28.6338 109.069 28.4865 108.611 28.7628L93.1459 36.1841C91.57 36.8839 88.8032 37.6942 88.8032 39.8672V114.725C88.8032 115.996 90.6355 116.825 91.625 117.174L99.2659 120.047C99.8339 120.268 100.402 120.489 101.098 120.729L102.967 121.613H47.6854C48.2901 121.097 50.6538 120.305 51.3684 120.047L59.1925 117.119C60.5118 116.659 61.8494 115.922 61.8494 114.283V39.8856C61.8494 37.5468 58.1298 36.534 55.0697 34.9871L44.1856 29.8493C43.6359 29.6099 43.3428 29.4441 42.793 29.1679L41.5104 28.3944L41.5287 28.376ZM31.9273 26.9949V121.594H26.4485V81.6514C26.4485 79.0733 23.0221 79.4968 23.0221 81.191V121.594C17.7816 121.594 18.0014 123.914 18.0014 128.702C18.0014 131.225 19.1375 133.527 21.4279 133.527H129.261C131.552 133.527 132.688 131.225 132.688 128.702C132.688 123.951 132.926 121.594 127.667 121.594V81.191C127.667 79.4968 124.241 79.0733 124.241 81.6514V121.594H118.762V26.9949C118.762 25.8531 117.828 24.9324 116.71 24.9324H34.0161C32.7701 24.9324 31.9639 25.7426 31.9639 26.9949H31.9273Z" fill="white"/>
<path fill-rule="evenodd" clip-rule="evenodd" d="M23.0215 20.1066V73.382C23.0215 75.6471 26.0998 75.997 26.4296 73.3636L26.448 22.1691C26.4296 20.9353 26.1548 19.4252 27.3641 19.4252H123.306C124.478 19.4252 124.24 20.788 124.222 21.9481C124.039 37.3986 124.222 53.6961 124.222 69.257C124.222 73.1794 123.635 75.2235 126.274 75.2235C126.824 75.2235 127.648 74.3949 127.648 73.8424V20.125C127.648 17.8968 125.761 16 123.544 16H27.1443C24.9271 16 23.0398 17.8968 23.0398 20.125L23.0215 20.1066Z" fill="white"/>
<path fill-rule="evenodd" clip-rule="evenodd" d="M99.5593 107.599V81.1914C101.153 81.1914 101.795 80.9704 103.444 80.9704H108.464V111.503C107.695 111.448 102.967 109.44 101.483 108.888C100.732 108.612 99.5593 108.391 99.5593 107.599ZM96.1328 80.2706V108.52C96.1328 110.803 97.5071 111.006 99.1745 111.669L108.153 115.26C109.656 115.794 111.891 116.144 111.891 113.786V79.1104C111.891 78.2817 110.773 77.5083 109.839 77.5083H99.3394C97.3055 77.5083 96.1328 78.2081 96.1328 80.2706Z" fill="white"/>
<path fill-rule="evenodd" clip-rule="evenodd" d="M42.2252 111.503V80.9704H46.7877C48.5834 80.9704 49.3897 81.1914 51.1304 81.1914V107.599C51.1304 108.428 48.5101 109.109 46.8793 109.772C45.8532 110.195 43.123 111.429 42.2069 111.503H42.2252ZM38.7987 79.1288V113.805C38.7987 115.517 40.2646 116.162 42.3535 115.315L51.3686 111.742C53.0177 111.079 54.5752 110.877 54.5752 108.52V80.2706C54.5752 78.2265 53.4208 77.5083 51.3686 77.5083H40.8509C39.9164 77.5083 38.7987 78.2817 38.7987 79.1104V79.1288Z" fill="white"/>
<path fill-rule="evenodd" clip-rule="evenodd" d="M99.5593 46.516C99.5593 45.7794 100.86 45.3927 101.538 45.0612C103.041 44.3062 107.493 41.9306 108.464 41.6912V71.7634H99.5593V46.516ZM96.1328 45.3743V72.4632C96.1328 74.0469 96.8657 75.2254 98.4232 75.2254H110.297C110.572 75.2254 111.176 74.8571 111.36 74.6914C111.744 74.3415 111.891 74.0469 111.891 73.3839V38.9473C111.891 38.4133 111.14 37.3452 110.059 37.3452C108.501 37.3452 101.117 41.3966 98.7897 42.5567C97.5804 43.1644 96.1328 43.6985 96.1328 45.3927V45.3743Z" fill="white"/>
<path fill-rule="evenodd" clip-rule="evenodd" d="M42.2252 41.6894C43.1963 41.9104 47.6489 44.3043 49.1514 45.0594C49.8294 45.3908 51.1304 45.7776 51.1304 46.5142V71.7615H42.2252V41.6894ZM38.7987 38.9271V73.3637C38.7987 74.6711 40.0081 75.2052 40.3928 75.2052H52.2664C53.8239 75.2052 54.5569 74.045 54.5569 72.4429V45.8144C54.5569 43.623 53.604 43.4941 52.1198 42.7575C49.7011 41.5421 42.1702 37.325 40.3928 37.325C39.7515 37.325 38.7987 38.301 38.7987 38.9271Z" fill="white"/>
</svg>
