<svg width="150" height="150" viewBox="0 0 150 150" fill="none" xmlns="http://www.w3.org/2000/svg">
<path fill-rule="evenodd" clip-rule="evenodd" d="M21 23.1189V126.881C21 127.957 22.0431 129 23.1189 129H42.3196C44.8297 129 44.6342 125.903 44.6342 124.371H105.366C105.366 125.936 105.17 129 107.68 129H126.881C127.957 129 129 127.957 129 126.881V23.1189C129 22.0431 127.957 21 126.881 21H23.1189C22.0431 21 21 22.0431 21 23.1189ZM39.7769 46.7531V124.143H25.8572V25.8572H124.143V124.143H110.223V46.7531C110.223 45.2861 109.017 44.4386 107.485 44.4386H42.5152C40.9831 44.406 39.7769 45.2535 39.7769 46.7531ZM44.6015 49.2632H72.6366V119.481H44.6015V49.2632ZM77.2982 49.2632H105.333V119.481H77.2982V49.2632Z" fill="white"/>
<path fill-rule="evenodd" clip-rule="evenodd" d="M54.5176 37.5868C54.5176 38.8894 55.4123 39.5791 57.2018 39.5791C58.7503 39.5791 60.6775 37.3824 61.8819 36.7694C63.0175 37.3313 66.4588 41.1372 68.8333 38.9405C70.6572 37.2547 67.7321 35.7221 66.2867 34.6493C65.2888 33.9086 63.5337 32.2483 62.0884 32.1717C60.3333 32.095 58.8536 33.6531 57.8212 34.3939C56.8577 35.1091 54.5176 36.4373 54.5176 37.5868Z" fill="white"/>
<path fill-rule="evenodd" clip-rule="evenodd" d="M80.5859 33.9577C80.5859 35.2697 82.6397 36.4273 83.6324 37.1733C85.1043 38.2795 86.3024 39.6172 88.3219 39.6172C89.52 39.6172 91.0262 38.1509 92.2584 37.2505C93.6619 36.1958 96.7768 34.5236 94.8941 32.8515C92.3953 30.6649 89.3831 34.3693 87.877 35.1153C87.5005 34.7037 85.0701 32.8258 84.454 32.5171C83.6667 32.1055 82.9136 32.054 82.0236 32.3885C81.4075 32.6457 80.5859 33.3917 80.5859 33.9577Z" fill="white"/>
<path fill-rule="evenodd" clip-rule="evenodd" d="M114.104 71.3066C114.104 73.268 116.941 73.9131 117.675 71.9259C118.714 69.1903 114.104 68.2613 114.104 71.3066Z" fill="white"/>
<path fill-rule="evenodd" clip-rule="evenodd" d="M114.104 78.51C114.104 80.3374 115.96 81.2004 117.205 80.109C117.739 79.6521 117.968 78.8907 117.739 78.1546C117.053 75.9718 114.104 76.8855 114.104 78.51Z" fill="white"/>
</svg>
