<svg width="24" height="24" viewBox="0 0 24 24" fill="none" xmlns="http://www.w3.org/2000/svg">
<path d="M8.3 19.3C8.11667 19.1167 8.025 18.8833 8.025 18.6C8.025 18.3167 8.11667 18.0833 8.3 17.9L9.4 16.8C7.26667 16.5167 5.5 15.9333 4.1 15.05C2.7 14.1667 2 13.15 2 12C2 10.6167 2.96267 9.43733 4.888 8.462C6.81333 7.48667 9.184 6.99933 12 7C14.8167 7 17.1877 7.48767 19.113 8.463C21.0383 9.43833 22.0007 10.6173 22 12C22 12.9 21.5667 13.725 20.7 14.475C19.8333 15.225 18.675 15.825 17.225 16.275C16.8917 16.375 16.604 16.3333 16.362 16.15C16.12 15.9667 15.9993 15.6917 16 15.325C16 15.125 16.071 14.9293 16.213 14.738C16.355 14.5467 16.5257 14.4173 16.725 14.35C17.775 14.0167 18.5833 13.625 19.15 13.175C19.7167 12.725 20 12.3333 20 12C20 11.4667 19.2877 10.8333 17.863 10.1C16.4383 9.36667 14.484 9 12 9C9.51667 9 7.56233 9.36667 6.137 10.1C4.71167 10.8333 3.99933 11.4667 4 12C4 12.4 4.425 12.8793 5.275 13.438C6.125 13.9967 7.33333 14.4173 8.9 14.7L8.3 14.1C8.11667 13.9167 8.025 13.6833 8.025 13.4C8.025 13.1167 8.11667 12.8833 8.3 12.7C8.48333 12.5167 8.71667 12.425 9 12.425C9.28333 12.425 9.51667 12.5167 9.7 12.7L12.3 15.3C12.4 15.4 12.4707 15.5083 12.512 15.625C12.5533 15.7417 12.5743 15.8667 12.575 16C12.575 16.1333 12.554 16.2583 12.512 16.375C12.47 16.4917 12.3993 16.6 12.3 16.7L9.7 19.3C9.51667 19.4833 9.28333 19.575 9 19.575C8.71667 19.575 8.48333 19.4833 8.3 19.3Z" fill="#213455"/>
</svg>
