<svg width="247" height="75" viewBox="0 0 247 75" fill="none" xmlns="http://www.w3.org/2000/svg">
<rect width="247" height="75" rx="37.5" fill="#E0C97F"/>
<path d="M51.3618 26.5752H67.8132V27.9533L55.284 47.1534H60.9902C61.9844 47.1534 62.8287 46.9394 63.5505 46.5112C64.2723 46.083 64.8988 45.3873 65.4435 44.4239C65.9883 43.4606 66.4241 42.0825 66.7645 40.2762H68.14L67.7178 48.5316H49.9999V47.1534L62.4746 27.9533H58.212C56.496 27.9533 55.1342 28.4216 54.1536 29.3716C53.1731 30.3216 52.5194 31.9271 52.1789 34.2017H50.8579L51.3618 26.5752Z" fill="#213455"/>
<path d="M82.1805 26.0273C84.2913 26.0273 86.2252 26.5224 88.0093 27.5259C89.7933 28.5294 91.1688 29.8941 92.1629 31.6201C93.1571 33.3461 93.6474 35.2996 93.6474 37.4671C93.6474 40.7586 92.5579 43.5148 90.3653 45.7091C88.1727 47.9034 85.4489 49.0006 82.2077 49.0006C80.0559 49.0006 78.1221 48.5055 76.4061 47.502C74.7038 46.4985 73.3556 45.1606 72.3614 43.4613C71.3672 41.7621 70.877 39.7952 70.877 37.5474C70.877 34.2158 71.9664 31.4596 74.1318 29.292C76.2972 27.1111 78.9801 26.0273 82.1805 26.0273ZM82.2622 27.459C81.0637 27.459 80.0287 27.7801 79.1435 28.4357C78.2583 29.078 77.5637 30.135 77.0462 31.58C76.5287 33.025 76.2699 35.0052 76.2699 37.5206C76.2699 40.1565 76.5151 42.1635 76.9917 43.5282C77.4684 44.893 78.1629 45.8964 79.089 46.5521C80.0015 47.2077 81.0773 47.5288 82.2894 47.5288C84.0871 47.5288 85.5306 46.7661 86.6065 45.2542C87.6824 43.7289 88.2271 41.0931 88.2271 37.3333C88.2271 34.6975 87.9956 32.7307 87.5326 31.406C87.0696 30.0814 86.375 29.1047 85.4626 28.4491C84.5365 27.7801 83.4742 27.459 82.2622 27.459Z" fill="#213455"/>
<path d="M104.475 26.5762H116.146C118.039 26.5762 119.591 26.817 120.776 27.2987C121.975 27.7804 122.86 28.436 123.445 29.2521C124.031 30.0817 124.317 30.9915 124.317 32.0084C124.317 33.6274 123.582 34.9252 122.111 35.9287C120.994 36.6914 119.264 37.1864 116.936 37.4139C118.107 37.6012 119.006 37.9089 119.632 38.3103C120.259 38.7251 120.817 39.3406 121.307 40.1434C121.947 41.2138 122.465 42.4982 122.873 43.9968C123.132 44.9601 123.35 45.5622 123.541 45.803C123.731 46.0573 123.949 46.1777 124.194 46.1777C124.862 46.1777 125.257 45.308 125.393 43.582H126.728C126.632 45.4284 126.21 46.7396 125.475 47.5424C124.739 48.3452 123.704 48.7332 122.356 48.7332C121.403 48.7332 120.626 48.5459 120.054 48.1579C119.469 47.7699 119.033 47.2079 118.733 46.4587C118.556 46.0305 118.298 45.027 117.971 43.4616C117.603 41.6151 117.263 40.3842 116.963 39.742C116.663 39.1131 116.282 38.6314 115.805 38.3371C115.329 38.0293 114.743 37.8822 114.049 37.8822H112.401V45.977C112.401 46.3382 112.51 46.6058 112.714 46.7932C113.014 47.0474 113.368 47.1678 113.776 47.1678H115.805V48.5459H104.488V47.1678H106.245C106.694 47.1678 107.035 47.0474 107.266 46.8199C107.498 46.5925 107.621 46.258 107.621 45.8432V29.2789C107.621 28.824 107.512 28.4895 107.307 28.2754C107.089 28.0613 106.79 27.9543 106.395 27.9543H104.488V26.5762H104.475ZM112.401 36.5442H114.294C115.969 36.5442 117.29 36.1294 118.257 35.2865C118.978 34.6442 119.346 33.5605 119.346 32.0352C119.346 30.6303 118.992 29.6 118.27 28.9578C117.549 28.3156 116.309 27.9811 114.552 27.9811C113.599 27.9811 113.014 28.0881 112.768 28.2888C112.523 28.4895 112.401 28.9444 112.401 29.6535V36.5442Z" fill="#213455"/>
<path d="M143.192 28.2746L144.594 26.3077H145.67L145.807 33.8941H144.445C143.736 31.7132 142.742 30.0809 141.435 28.9971C140.141 27.9133 138.698 27.3647 137.131 27.3647C135.797 27.3647 134.694 27.726 133.863 28.4351C133.019 29.1577 132.596 30.014 132.596 31.0041C132.596 31.5928 132.76 32.1414 133.1 32.6364C133.427 33.1315 133.972 33.5596 134.707 33.9075C135.443 34.2554 136.736 34.6166 138.602 34.9913C140.768 35.4328 142.266 35.8342 143.096 36.1955C144.404 36.7708 145.398 37.5335 146.052 38.47C146.705 39.42 147.032 40.5707 147.032 41.922C147.032 43.9558 146.324 45.5748 144.894 46.7789C143.178 48.2373 141.054 48.9599 138.534 48.9599C136.205 48.9599 134.081 48.1571 132.161 46.5649L130.39 48.7324H129.273V40.5974H130.608C131.929 45.2403 134.598 47.5684 138.643 47.5684C140.291 47.5684 141.571 47.1937 142.497 46.4444C143.41 45.6952 143.873 44.7586 143.873 43.6481C143.873 42.872 143.668 42.2164 143.273 41.6812C142.865 41.146 142.252 40.7179 141.408 40.3967C140.945 40.2228 139.801 39.9418 137.962 39.5538C135.497 39.0186 133.74 38.47 132.678 37.8947C131.629 37.3194 130.853 36.6236 130.363 35.8074C129.873 34.9779 129.628 33.9744 129.628 32.7836C129.628 30.79 130.308 29.1577 131.67 27.8866C133.032 26.6289 134.871 26 137.172 26C139.338 26.0268 141.353 26.776 143.192 28.2746Z" fill="#213455"/>
<path d="M161.127 26.0273L169.516 45.7359C169.761 46.2845 170.02 46.6725 170.306 46.8598C170.592 47.0605 170.96 47.1542 171.423 47.1542H172.24V48.5457H161.753V47.1675H162.734C163.51 47.1675 164.041 47.0873 164.341 46.9133C164.627 46.7394 164.777 46.5253 164.777 46.2443C164.777 46.0302 164.722 45.776 164.6 45.4817L162.87 41.4142H154.495L153.705 43.274C153.378 44.05 153.201 44.6254 153.201 45C153.201 45.6422 153.446 46.164 153.923 46.5654C154.413 46.9668 155.067 47.1675 155.911 47.1675H156.619V48.5457H148.121V47.1675H148.611C149.156 47.1675 149.633 46.9936 150.055 46.6591C150.641 46.1774 151.09 45.5753 151.417 44.8261L159.438 26.0273H161.127ZM158.703 31.5934L155.121 39.9692H162.257L158.703 31.5934Z" fill="#213455"/>
<path d="M173.154 26.5762H180.099L192.206 41.6419V31.4063C192.206 30.4028 191.92 29.5866 191.335 28.9712C190.749 28.3557 189.918 28.0212 188.842 27.9543V26.5762H197V27.9543C195.856 28.0747 195.039 28.4092 194.549 28.9578C194.058 29.5064 193.813 30.3225 193.813 31.4063V48.5459H192.07L178.288 31.219V43.2207C178.288 44.5989 178.601 45.6024 179.241 46.2312C179.881 46.8601 180.671 47.1678 181.624 47.1678H182.006V48.5459H172.977V47.1678H173.603C174.488 47.1678 175.237 46.8199 175.836 46.1242C176.436 45.4284 176.749 44.5453 176.749 43.4482V29.2789C176.068 28.3958 175.21 27.9677 174.161 27.9677H173.167V26.5762H173.154Z" fill="#213455"/>
<path d="M101.03 28.984C101.03 32.9177 99.9404 36.1021 98.6058 36.1021C97.2711 36.1021 96.1816 32.9177 96.1816 28.984C96.1816 27.3383 97.2711 26.0137 98.6058 26.0137C99.9404 26.0137 101.03 27.3383 101.03 28.984Z" fill="#213455"/>
</svg>
