<svg width="401" height="64" viewBox="0 0 401 64" fill="none" xmlns="http://www.w3.org/2000/svg">
<path d="M3.70994 1.59473H48.526V5.41597L14.3946 58.6536H29.9392C32.6475 58.6536 34.9476 58.06 36.9139 56.8728C38.8802 55.6857 40.5867 53.7565 42.0707 51.0853C43.5547 48.4142 44.7419 44.5929 45.6694 39.5845H49.4164L48.2663 62.4749H0V58.6536L33.9831 5.41597H22.3709C17.6964 5.41597 13.9865 6.71445 11.3153 9.34851C8.64416 11.9826 6.86339 16.4345 5.9359 22.7414H2.33726L3.70994 1.59473Z" fill="#E0C97F"/>
<path d="M87.6636 0.0742188C93.414 0.0742188 98.6821 1.44689 103.542 4.22935C108.402 7.0118 112.149 10.7959 114.857 15.5818C117.566 20.3676 118.901 25.7841 118.901 31.7942C118.901 40.9207 115.933 48.5631 109.96 54.6474C103.987 60.7317 96.5675 63.7739 87.7378 63.7739C81.8761 63.7739 76.608 62.4012 71.9335 59.6188C67.296 56.8363 63.6232 53.1264 60.9149 48.4147C58.2067 43.7031 56.8711 38.2495 56.8711 32.0168C56.8711 22.779 59.8391 15.1366 65.7379 9.12647C71.6367 3.07927 78.9452 0.0742188 87.6636 0.0742188ZM87.8862 4.04385C84.6215 4.04385 81.8019 4.93424 79.3904 6.75211C76.979 8.53288 75.0869 11.4637 73.6771 15.4705C72.2673 19.4772 71.5625 24.9679 71.5625 31.9426C71.5625 39.2512 72.2303 44.8161 73.5287 48.6002C74.8272 52.3844 76.7193 55.1668 79.242 56.9847C81.7277 58.8026 84.6586 59.693 87.9604 59.693C92.8575 59.693 96.7901 57.5783 99.7209 53.3861C102.652 49.1567 104.136 41.8482 104.136 31.4232C104.136 24.1146 103.505 18.661 102.244 14.9882C100.982 11.3153 99.0902 8.60707 96.6046 6.7892C94.0818 4.93423 91.188 4.04385 87.8862 4.04385Z" fill="#E0C97F"/>
<path d="M148.4 1.59473H180.195C185.351 1.59473 189.581 2.26253 192.808 3.5981C196.073 4.93368 198.485 6.75154 200.08 9.01461C201.675 11.3148 202.454 13.8375 202.454 16.6571C202.454 21.1461 200.451 24.7448 196.444 27.5272C193.402 29.6419 188.69 31.0146 182.346 31.6453C185.537 32.1646 187.985 33.0179 189.692 34.1309C191.399 35.281 192.92 36.9876 194.255 39.2135C195.999 42.1815 197.409 45.743 198.522 49.8982C199.227 52.5693 199.82 54.2388 200.34 54.9066C200.859 55.6115 201.453 55.9454 202.12 55.9454C203.938 55.9454 205.014 53.5339 205.385 48.7481H209.021C208.761 53.8678 207.611 57.5035 205.608 59.7295C203.604 61.9555 200.785 63.0314 197.112 63.0314C194.515 63.0314 192.4 62.512 190.842 61.4361C189.247 60.3602 188.06 58.802 187.243 56.7245C186.761 55.5373 186.056 52.7548 185.166 48.4142C184.164 43.2945 183.237 39.8813 182.421 38.1006C181.604 36.3569 180.566 35.0213 179.267 34.2051C177.969 33.3518 176.373 32.9437 174.481 32.9437H169.992V55.3889C169.992 56.3906 170.289 57.1326 170.846 57.652C171.662 58.3568 172.626 58.6907 173.739 58.6907H179.267V62.512H148.437V58.6907H153.223C154.448 58.6907 155.375 58.3568 156.006 57.7261C156.636 57.0954 156.97 56.168 156.97 55.0179V9.08881C156.97 7.82743 156.674 6.89995 156.117 6.30636C155.523 5.71277 154.707 5.41597 153.631 5.41597H148.437V1.59473H148.4ZM169.992 29.2338H175.149C179.712 29.2338 183.311 28.0837 185.945 25.7465C187.911 23.9657 188.913 20.9606 188.913 16.7313C188.913 12.8359 187.948 9.9792 185.982 8.19843C184.016 6.41766 180.64 5.49016 175.854 5.49016C173.257 5.49016 171.662 5.78697 170.994 6.34346C170.326 6.89995 169.992 8.16132 169.992 10.1276V29.2338Z" fill="#E0C97F"/>
<path d="M253.871 6.3069L257.692 0.853282H260.623L260.994 21.8887H257.284C255.355 15.8414 252.646 11.3153 249.085 8.31027C245.56 5.30521 241.628 3.78414 237.361 3.78414C233.726 3.78414 230.721 4.78583 228.458 6.7521C226.157 8.75547 225.007 11.1298 225.007 13.8752C225.007 15.5076 225.453 17.0286 226.38 18.4013C227.27 19.774 228.754 20.9612 230.758 21.9257C232.761 22.8903 236.286 23.892 241.368 24.9308C247.267 26.1551 251.348 27.2681 253.611 28.2698C257.173 29.865 259.881 31.9797 261.662 34.5767C263.442 37.2107 264.333 40.4013 264.333 44.1483C264.333 49.7874 262.404 54.2764 258.508 57.6154C253.834 61.6592 248.046 63.6626 241.183 63.6626C234.839 63.6626 229.051 61.4366 223.82 57.0218L218.997 63.0319H215.955V40.4754H219.591C223.189 53.3489 230.461 59.8043 241.479 59.8043C245.968 59.8043 249.456 58.7655 251.979 56.6879C254.464 54.6103 255.726 52.0134 255.726 48.9341C255.726 46.7824 255.169 44.9645 254.093 43.4805C252.98 41.9965 251.311 40.8093 249.011 39.919C247.749 39.4367 244.633 38.6576 239.624 37.5817C232.91 36.0977 228.124 34.5767 225.23 32.9814C222.373 31.3861 220.259 29.4569 218.923 27.1939C217.587 24.8937 216.92 22.1113 216.92 18.8094C216.92 13.2816 218.775 8.75546 222.485 5.23102C226.195 1.74367 231.203 0 237.473 0C243.372 0.0741988 248.862 2.15177 253.871 6.3069Z" fill="#E0C97F"/>
<path d="M302.733 0.0742188L325.586 54.7216C326.254 56.2427 326.959 57.3186 327.738 57.838C328.517 58.3945 329.518 58.6542 330.78 58.6542H333.006V62.5125H304.439V58.6913H307.11C309.225 58.6913 310.672 58.4687 311.488 57.9864C312.267 57.5041 312.675 56.9105 312.675 56.1314C312.675 55.5378 312.527 54.8329 312.193 54.0167L307.481 42.7385H284.665L282.513 47.8953C281.623 50.0471 281.141 51.6424 281.141 52.6812C281.141 54.4619 281.809 55.9088 283.107 57.0218C284.443 58.1348 286.223 58.6913 288.524 58.6913H290.453V62.5125H267.303V58.6913H268.638C270.122 58.6913 271.421 58.209 272.571 57.2815C274.166 55.9459 275.39 54.2765 276.281 52.1989L298.132 0.0742188H302.733ZM296.129 15.5076L286.372 38.7318H305.812L296.129 15.5076Z" fill="#E0C97F"/>
<path d="M335.494 1.59473H354.415L387.396 43.3687V14.9876C387.396 12.2052 386.617 9.9421 385.022 8.23553C383.426 6.52896 381.163 5.60147 378.233 5.41597V1.59473H400.455V5.41597C397.339 5.74987 395.113 6.67735 393.777 8.19843C392.442 9.7195 391.774 11.9826 391.774 14.9876V62.512H387.025L349.48 14.4682V47.7464C349.48 51.5676 350.334 54.3501 352.077 56.0938C353.821 57.8374 355.973 58.6907 358.57 58.6907H359.609V62.512H335.012V58.6907H336.718C339.13 58.6907 341.17 57.7261 342.803 55.797C344.435 53.8678 345.288 51.4192 345.288 48.3771V9.08881C343.433 6.64025 341.096 5.45307 338.239 5.45307H335.531V1.59473H335.494Z" fill="#E0C97F"/>
<path d="M139.01 8.27122C139.01 19.1784 136.042 28.0081 132.406 28.0081C128.771 28.0081 125.803 19.1784 125.803 8.27122C125.803 3.70799 128.771 0.0351562 132.406 0.0351562C136.042 0.0351562 139.01 3.70799 139.01 8.27122Z" fill="#E0C97F"/>
</svg>
