<svg width="3848" height="303" viewBox="0 0 3848 303" fill="none" xmlns="http://www.w3.org/2000/svg">
<path d="M1945.79 7.50879H2160.66V25.4843L1997.02 275.92H2071.55C2084.53 275.92 2095.56 273.127 2104.99 267.543C2114.41 261.958 2122.6 252.883 2129.71 240.318C2136.83 227.752 2142.52 209.777 2146.97 186.217H2164.93L2159.42 293.895H1928V275.92L2090.94 25.4843H2035.26C2012.85 25.4843 1995.06 31.5925 1982.25 43.9834C1969.45 56.3743 1960.91 77.3166 1956.46 106.985H1939.21L1945.79 7.50879Z" fill="white"/>
<path d="M2348.32 0.350586C2375.89 0.350586 2401.15 6.80778 2424.45 19.8967C2447.75 32.9857 2465.72 50.7867 2478.7 73.2997C2491.69 95.8127 2498.09 121.293 2498.09 149.565C2498.09 192.497 2483.86 228.448 2455.22 257.069C2426.59 285.69 2391.01 300.001 2348.68 300.001C2320.57 300.001 2295.31 293.543 2272.9 280.454C2250.67 267.365 2233.06 249.913 2220.07 227.749C2207.09 205.585 2200.68 179.931 2200.68 150.612C2200.68 107.156 2214.91 71.2055 2243.19 42.9333C2271.48 14.4867 2306.52 0.350586 2348.32 0.350586ZM2349.39 19.0241C2333.73 19.0241 2320.21 23.2126 2308.65 31.7641C2297.09 40.141 2288.02 53.9281 2281.26 72.7762C2274.5 91.6243 2271.12 117.453 2271.12 150.263C2271.12 184.643 2274.32 210.821 2280.55 228.622C2286.77 246.423 2295.85 259.512 2307.94 268.063C2319.86 276.615 2333.91 280.803 2349.74 280.803C2373.22 280.803 2392.08 270.856 2406.13 251.135C2420.18 231.24 2427.3 196.86 2427.3 147.82C2427.3 113.439 2424.27 87.7848 2418.22 70.5074C2412.18 53.23 2403.11 40.49 2391.19 31.9386C2379.09 23.2126 2365.22 19.0241 2349.39 19.0241Z" fill="white"/>
<path d="M2639.51 7.50879H2791.95C2816.67 7.50879 2836.95 10.6502 2852.42 16.9329C2868.08 23.2156 2879.64 31.767 2887.29 42.4127C2894.94 53.2329 2898.67 65.1002 2898.67 78.3637C2898.67 99.4806 2889.07 116.409 2869.86 129.498C2855.27 139.446 2832.68 145.903 2802.26 148.87C2817.56 151.313 2829.3 155.327 2837.48 160.562C2845.67 165.973 2852.96 174 2859.36 184.472C2867.72 198.433 2874.48 215.187 2879.82 234.733C2883.2 247.299 2886.04 255.152 2888.53 258.293C2891.02 261.609 2893.87 263.18 2897.07 263.18C2905.79 263.18 2910.95 251.836 2912.72 229.323H2930.16C2928.91 253.407 2923.4 270.51 2913.79 280.981C2904.19 291.452 2890.67 296.513 2873.06 296.513C2860.61 296.513 2850.47 294.07 2843 289.009C2835.35 283.948 2829.66 276.618 2825.74 266.845C2823.43 261.26 2820.05 248.171 2815.78 227.752C2810.98 203.669 2806.53 187.613 2802.62 179.236C2798.71 171.034 2793.72 164.751 2787.5 160.911C2781.27 156.898 2773.62 154.978 2764.55 154.978H2743.03V260.562C2743.03 265.274 2744.45 268.765 2747.12 271.208C2751.03 274.524 2755.66 276.094 2761 276.094H2787.5V294.07H2639.68V276.094H2662.63C2668.5 276.094 2672.95 274.524 2675.97 271.557C2678.99 268.59 2680.6 264.227 2680.6 258.817V42.7617C2680.6 36.8281 2679.17 32.4651 2676.5 29.6728C2673.66 26.8805 2669.74 25.4843 2664.59 25.4843H2639.68V7.50879H2639.51ZM2743.03 137.526H2767.76C2789.63 137.526 2806.89 132.116 2819.52 121.121C2828.94 112.744 2833.75 98.608 2833.75 78.7128C2833.75 60.3882 2829.12 46.9502 2819.69 38.5733C2810.27 30.1964 2794.08 25.8333 2771.13 25.8333C2758.68 25.8333 2751.03 27.2295 2747.83 29.8473C2744.63 32.4651 2743.03 38.3987 2743.03 47.6483V137.526Z" fill="white"/>
<path d="M3145.21 29.6683L3163.53 4.01393H3177.59L3179.36 102.966H3161.58C3152.33 74.5198 3139.34 53.2284 3122.27 39.0924C3105.37 24.9563 3086.51 17.801 3066.06 17.801C3048.62 17.801 3034.22 22.513 3023.37 31.7626C3012.34 41.1866 3006.82 52.3558 3006.82 65.2703C3006.82 72.9491 3008.96 80.1045 3013.41 86.5617C3017.67 93.0189 3024.79 98.6035 3034.39 103.141C3044 107.678 3060.9 112.391 3085.27 117.277C3113.55 123.036 3133.12 128.272 3143.97 132.984C3161.04 140.488 3174.03 150.436 3182.57 162.652C3191.1 175.043 3195.37 190.052 3195.37 207.678C3195.37 234.205 3186.12 255.322 3167.45 271.029C3145.03 290.051 3117.29 299.475 3084.38 299.475C3053.96 299.475 3026.21 289.004 3001.13 268.236L2978.01 296.509H2963.42V190.401H2980.85C2998.11 250.959 3032.97 281.325 3085.8 281.325C3107.32 281.325 3124.04 276.439 3136.14 266.666C3148.06 256.893 3154.11 244.676 3154.11 230.191C3154.11 220.069 3151.44 211.518 3146.28 204.537C3140.94 197.556 3132.94 191.971 3121.91 187.783C3115.86 185.514 3100.92 181.849 3076.91 176.788C3044.71 169.807 3021.77 162.652 3007.89 155.148C2994.19 147.644 2984.06 138.568 2977.65 127.923C2971.25 117.103 2968.05 104.014 2968.05 88.4814C2968.05 62.478 2976.94 41.1866 2994.73 24.6073C3012.52 8.20243 3036.53 0 3066.59 0C3094.87 0.349039 3121.2 10.1221 3145.21 29.6683Z" fill="white"/>
<path d="M3379.47 0.350586L3489.05 257.418C3492.25 264.573 3495.63 269.634 3499.36 272.077C3503.1 274.695 3507.9 275.917 3513.95 275.917H3524.62V294.067H3387.66V276.091H3400.46C3410.6 276.091 3417.54 275.044 3421.45 272.775C3425.19 270.507 3427.14 267.714 3427.14 264.049C3427.14 261.257 3426.43 257.941 3424.83 254.102L3402.24 201.048H3292.85L3282.53 225.306C3278.26 235.428 3275.95 242.933 3275.95 247.819C3275.95 256.196 3279.15 263.002 3285.38 268.238C3291.78 273.474 3300.32 276.091 3311.35 276.091H3320.6V294.067H3209.6V276.091H3216.01C3223.12 276.091 3229.35 273.823 3234.86 269.46C3242.51 263.177 3248.38 255.324 3252.65 245.55L3357.42 0.350586H3379.47ZM3347.81 72.9507L3301.03 182.2H3394.24L3347.81 72.9507Z" fill="white"/>
<path d="M3536.54 7.50879H3627.25L3785.39 204.018V70.5103C3785.39 57.4214 3781.65 46.7757 3774 38.7478C3766.35 30.7199 3755.5 26.3569 3741.45 25.4843V7.50879H3848V25.4843C3833.06 27.055 3822.38 31.418 3815.98 38.5733C3809.58 45.7286 3806.38 56.3743 3806.38 70.5103V294.07H3783.61L3603.6 68.0671V224.611C3603.6 242.587 3607.69 255.676 3616.05 263.878C3624.41 272.08 3634.72 276.094 3647.18 276.094H3652.16V294.07H3534.22V276.094H3542.41C3553.97 276.094 3563.75 271.557 3571.58 262.482C3579.41 253.407 3583.5 241.889 3583.5 227.578V42.7617C3574.6 31.2435 3563.4 25.6589 3549.7 25.6589H3536.71V7.50879H3536.54Z" fill="white"/>
<path d="M2594.5 38.9152C2594.5 90.2239 2580.27 131.76 2562.84 131.76C2545.41 131.76 2531.18 90.2239 2531.18 38.9152C2531.18 17.4493 2545.41 0.171875 2562.84 0.171875C2580.27 0.171875 2594.5 17.4493 2594.5 38.9152Z" fill="white"/>
<path d="M17.7877 10.5088H232.663V28.4843L69.0162 278.92H143.547C156.532 278.92 167.56 276.127 176.987 270.543C186.415 264.958 194.597 255.883 201.712 243.318C208.827 230.752 214.519 212.777 218.966 189.217H236.932L231.418 296.895H0V278.92L162.935 28.4843H107.26C84.8472 28.4843 67.0595 34.5925 54.2524 46.9834C41.4453 59.3743 32.9072 80.3166 28.4603 109.985H11.2062L17.7877 10.5088Z" fill="white"/>
<path d="M420.319 3.35059C447.89 3.35059 473.149 9.80778 496.451 22.8967C519.752 35.9857 537.718 53.7867 550.703 76.2997C563.688 98.8127 570.092 124.293 570.092 152.565C570.092 195.497 555.861 231.448 527.223 260.069C498.585 288.69 463.01 303.001 420.675 303.001C392.571 303.001 367.312 296.543 344.9 283.454C322.665 270.365 305.055 252.913 292.07 230.749C279.085 208.585 272.682 182.931 272.682 153.612C272.682 110.156 286.912 74.2055 315.194 45.9333C343.477 17.4867 378.518 3.35059 420.319 3.35059ZM421.387 22.0241C405.733 22.0241 392.215 26.2126 380.653 34.7641C369.091 43.141 360.019 56.9281 353.26 75.7762C346.5 94.6243 343.121 120.453 343.121 153.263C343.121 187.643 346.323 213.821 352.548 231.622C358.774 249.423 367.846 262.512 379.941 271.063C391.859 279.615 405.911 283.803 421.742 283.803C445.222 283.803 464.077 273.856 478.129 254.135C492.182 234.24 499.297 199.86 499.297 150.82C499.297 116.439 496.273 90.7848 490.225 73.5074C484.177 56.23 475.105 43.49 463.188 34.9386C451.092 26.2126 437.218 22.0241 421.387 22.0241Z" fill="white"/>
<path d="M711.506 10.5088H863.946C888.671 10.5088 908.949 13.6502 924.424 19.9329C940.077 26.2156 951.64 34.767 959.288 45.4127C966.937 56.2329 970.672 68.1002 970.672 81.3637C970.672 102.481 961.067 119.409 941.856 132.498C927.27 142.446 904.68 148.903 874.263 151.87C889.56 154.313 901.3 158.327 909.483 163.562C917.665 168.973 924.958 177 931.362 187.472C939.722 201.433 946.481 218.187 951.817 237.733C955.197 250.299 958.043 258.152 960.533 261.293C963.024 264.609 965.87 266.18 969.071 266.18C977.787 266.18 982.946 254.836 984.725 232.323H1002.16C1000.91 256.407 995.397 273.51 985.792 283.981C976.186 294.452 962.668 299.513 945.058 299.513C932.607 299.513 922.468 297.07 914.997 292.009C907.348 286.948 901.656 279.618 897.743 269.845C895.43 264.26 892.051 251.171 887.782 230.752C882.979 206.669 878.532 190.613 874.619 182.236C870.706 174.034 865.725 167.751 859.499 163.911C853.274 159.898 845.625 157.978 836.553 157.978H815.03V263.562C815.03 268.274 816.453 271.765 819.121 274.208C823.035 277.524 827.659 279.094 832.996 279.094H859.499V297.07H711.684V279.094H734.63C740.5 279.094 744.947 277.524 747.971 274.557C750.994 271.59 752.595 267.227 752.595 261.817V45.7617C752.595 39.8281 751.172 35.4651 748.504 32.6728C745.658 29.8805 741.745 28.4843 736.586 28.4843H711.684V10.5088H711.506ZM815.03 140.526H839.755C861.634 140.526 878.888 135.116 891.517 124.121C900.945 115.744 905.747 101.608 905.747 81.7128C905.747 63.3882 901.122 49.9502 891.695 41.5733C882.268 33.1964 866.081 28.8333 843.135 28.8333C830.683 28.8333 823.035 30.2295 819.833 32.8473C816.631 35.4651 815.03 41.3987 815.03 50.6483V140.526Z" fill="white"/>
<path d="M1217.21 32.6683L1235.53 7.01393H1249.59L1251.36 105.966H1233.58C1224.33 77.5198 1211.34 56.2284 1194.27 42.0924C1177.37 27.9563 1158.51 20.801 1138.06 20.801C1120.62 20.801 1106.22 25.513 1095.37 34.7626C1084.34 44.1866 1078.82 55.3558 1078.82 68.2703C1078.82 75.9491 1080.96 83.1045 1085.41 89.5617C1089.67 96.0189 1096.79 101.603 1106.39 106.141C1116 110.678 1132.9 115.391 1157.27 120.277C1185.55 126.036 1205.12 131.272 1215.97 135.984C1233.04 143.488 1246.03 153.436 1254.57 165.652C1263.1 178.043 1267.37 193.052 1267.37 210.678C1267.37 237.205 1258.12 258.322 1239.45 274.029C1217.03 293.051 1189.29 302.475 1156.38 302.475C1125.96 302.475 1098.21 292.004 1073.13 271.236L1050.01 299.509H1035.42V193.401H1052.85C1070.11 253.959 1104.97 284.325 1157.8 284.325C1179.32 284.325 1196.04 279.439 1208.14 269.666C1220.06 259.893 1226.11 247.676 1226.11 233.191C1226.11 223.069 1223.44 214.518 1218.28 207.537C1212.94 200.556 1204.94 194.971 1193.91 190.783C1187.86 188.514 1172.92 184.849 1148.91 179.788C1116.71 172.807 1093.77 165.652 1079.89 158.148C1066.19 150.644 1056.06 141.568 1049.65 130.923C1043.25 120.103 1040.05 107.014 1040.05 91.4814C1040.05 65.478 1048.94 44.1866 1066.73 27.6073C1084.52 11.2024 1108.53 3 1138.59 3C1166.87 3.34904 1193.2 13.1221 1217.21 32.6683Z" fill="white"/>
<path d="M1451.47 3.35059L1561.05 260.418C1564.25 267.573 1567.63 272.634 1571.36 275.077C1575.1 277.695 1579.9 278.917 1585.95 278.917H1596.62V297.067H1459.66V279.091H1472.46C1482.6 279.091 1489.54 278.044 1493.45 275.775C1497.19 273.507 1499.14 270.714 1499.14 267.049C1499.14 264.257 1498.43 260.941 1496.83 257.102L1474.24 204.048H1364.85L1354.53 228.306C1350.26 238.428 1347.95 245.933 1347.95 250.819C1347.95 259.196 1351.15 266.002 1357.38 271.238C1363.78 276.474 1372.32 279.091 1383.35 279.091H1392.6V297.067H1281.6V279.091H1288.01C1295.12 279.091 1301.35 276.823 1306.86 272.46C1314.51 266.177 1320.38 258.324 1324.65 248.55L1429.42 3.35059H1451.47ZM1419.81 75.9507L1373.03 185.2H1466.24L1419.81 75.9507Z" fill="white"/>
<path d="M1608.54 10.5088H1699.25L1857.39 207.018V73.5103C1857.39 60.4214 1853.65 49.7757 1846 41.7478C1838.35 33.7199 1827.5 29.3569 1813.45 28.4843V10.5088H1920V28.4843C1905.06 30.055 1894.38 34.418 1887.98 41.5733C1881.58 48.7286 1878.38 59.3743 1878.38 73.5103V297.07H1855.61L1675.6 71.0671V227.611C1675.6 245.587 1679.69 258.676 1688.05 266.878C1696.41 275.08 1706.72 279.094 1719.18 279.094H1724.16V297.07H1606.22V279.094H1614.41C1625.97 279.094 1635.75 274.557 1643.58 265.482C1651.41 256.407 1655.5 244.889 1655.5 230.578V45.7617C1646.6 34.2435 1635.4 28.6589 1621.7 28.6589H1608.71V10.5088H1608.54Z" fill="white"/>
<path d="M666.5 41.9152C666.5 93.2239 652.27 134.76 634.838 134.76C617.406 134.76 603.176 93.2239 603.176 41.9152C603.176 20.4493 617.406 3.17188 634.838 3.17188C652.27 3.17188 666.5 20.4493 666.5 41.9152Z" fill="white"/>
</svg>
